<svg xmlns="http://www.w3.org/2000/svg" version="1.1" xmlns:xlink="http://www.w3.org/1999/xlink" xmlns:svgjs="http://svgjs.com/svgjs" width="16" height="16"><svg width="16" height="16" xmlns="http://www.w3.org/2000/svg">
 <g>
  <title>Layer 1</title>
  <ellipse stroke-width="0.5" stroke="#66023c" ry="6.60667" rx="6.85352" id="SvgjsEllipse1004" cy="8" cx="8" fill="none"></ellipse>
  <path transform="rotate(-45 8 9.19088)" stroke="#66023c" stroke-width="0.5" id="SvgjsPath1003" d="m3.52107,13.66982l0,-8.95788l8.95787,8.95788l-8.95787,0z" opacity="undefined" fill="none"></path>
  <path id="SvgjsPath1002" d="m4.63366,5.75578" opacity="NaN" stroke-width="0.5" stroke="#66023c" fill="none"></path>
  <path id="SvgjsPath1001" d="m5.22772,6.0198" opacity="NaN" stroke-width="0.5" stroke="#66023c" fill="none"></path>
  <path id="SvgjsPath1000" d="m5.49175,6.81188c2.70627,-2.9703 5.54455,0.33003 5.53135,0.31683c0.0132,0.0132 -9.42574,0.14521 -9.43894,0.13201c0.0132,0.0132 10.64026,-2.56106 10.62706,-2.57426c0.0132,0.0132 0.60726,2.38944 0.59406,2.37624c0.0132,0.0132 -6.85149,5.29373 -6.86469,5.28053c0.0132,0.0132 -2.09901,-3.9472 -2.11221,-3.9604c0.0132,0.0132 9.51815,1.33333 9.50495,1.32013c0.0132,0.0132 -7.44555,-4.93729 -7.45875,-4.9505c0.0132,0.0132 5.09571,-2.49505 5.08251,-2.50825c0.0132,0.0132 -6.32343,2.45545 -6.33663,2.44224" opacity="NaN" stroke-width="0.5" stroke="#66023c" fill="none"></path>
 </g>

</svg><style>@media (prefers-color-scheme: light) { :root { filter: none; } }
@media (prefers-color-scheme: dark) { :root { filter: contrast(0.7407407407407407) brightness(2); } }
</style></svg>